Coordinates
version=1
nRows=14
nColumns=40
inDegrees=yes

Units are S.I. units (second, meters, Newtons, ...)
If the header above contains a line with 'inDegrees', this indicates whether rotational values are in degrees (yes) or radians (no).

endheader
time	pelvis_tilt	pelvis_list	pelvis_rotation	pelvis_tx	pelvis_ty	pelvis_tz	hip_flexion_r	hip_adduction_r	hip_rotation_r	knee_angle_r	knee_angle_r_beta	ankle_angle_r	subtalar_angle_r	mtp_angle_r	hip_flexion_l	hip_adduction_l	hip_rotation_l	knee_angle_l	knee_angle_l_beta	ankle_angle_l	subtalar_angle_l	mtp_angle_l	lumbar_extension	lumbar_bending	lumbar_rotation	arm_flex_r	arm_add_r	arm_rot_r	elbow_flex_r	pro_sup_r	wrist_flex_r	wrist_dev_r	arm_flex_l	arm_add_l	arm_rot_l	elbow_flex_l	pro_sup_l	wrist_flex_l	wrist_dev_l
      3.25500000	    -32.96390534	     13.12948207	      4.81379606	      0.17327114	      0.83263101	     -1.17480710	     59.65945098	    -40.40749499	    -14.04819047	     32.19872058	      0.56197369	      0.72313899	     -5.10123596	      0.00000000	     47.82126955	    -10.01618991	    -27.93846891	     20.72498658	      0.36171925	     -4.21310302	      3.53963113	      0.00000000	      0.00000000	      0.00000000	      0.00000000	     43.47392973	    -15.98254706	     43.47392973	     75.47292328	     44.69779730	      0.00000000	      0.00000000	     43.47392973	    -15.98254706	     43.47392973	     75.47292328	     44.69779730	      0.00000000	      0.00000000
      3.26000000	    -33.12377052	     12.84977331	      4.88198480	      0.17253018	      0.83197789	     -1.17485333	     59.80479529	    -40.23851106	    -14.07308656	     32.35194802	      0.56464801	      0.59895162	     -5.35170689	      0.00000000	     48.29075552	    -10.33147365	    -27.77401710	     21.09533621	      0.36818307	     -4.10882085	      3.73158844	      0.00000000	      0.00000000	      0.00000000	      0.00000000	     43.48636694	    -15.96972974	     43.48636694	     75.46170004	     44.71362554	      0.00000000	      0.00000000	     43.48636694	    -15.96972974	     43.48636694	     75.46170004	     44.71362554	      0.00000000	      0.00000000
      3.26500000	    -33.24090175	     12.55636309	      4.88642729	      0.17164139	      0.83124592	     -1.17473391	     59.94952812	    -40.01548984	    -14.11870602	     32.53546245	      0.56785094	      0.57905095	     -5.56007603	      0.00000000	     48.78071840	    -10.73255209	    -27.65043816	     21.59257825	      0.37686158	     -4.03741148	      3.71639983	      0.00000000	      0.00000000	      0.00000000	      0.00000000	     43.49819969	    -15.95759631	     43.49819969	     75.45119237	     44.72799931	      0.00000000	      0.00000000	     43.49819969	    -15.95759631	     43.49819969	     75.45119237	     44.72799931	      0.00000000	      0.00000000
      3.27000000	    -33.50855755	     12.27178921	      5.03694305	      0.17063236	      0.83019562	     -1.17495357	     60.27798799	    -39.94826861	    -14.21478816	     32.80657492	      0.57258275	      0.55423292	     -5.78224440	      0.00000000	     49.44160339	    -10.97729678	    -27.31490104	     22.03798329	      0.38463537	     -3.89211044	      3.64158316	      0.00000000	      0.00000000	      0.00000000	      0.00000000	     43.51036921	    -15.94516334	     43.51036921	     75.44050970	     44.74233132	      0.00000000	      0.00000000	     43.51036921	    -15.94516334	     43.51036921	     75.44050970	     44.74233132	      0.00000000	      0.00000000
      3.27500000	    -34.41008113	     11.89329659	      5.62827505	      0.16883908	      0.82777373	     -1.17620878	     61.29939676	    -40.22833986	    -14.47264488	     33.28546148	      0.58094090	      0.63545826	     -5.84564279	      0.00000000	     50.99926501	    -10.92704704	    -26.39101071	     22.65057857	      0.39532717	     -3.90465301	      2.87435188	      0.00000000	      0.00000000	      0.00000000	      0.00000000	     43.52664935	    -15.92848070	     43.52664935	     75.42606312	     44.76234769	      0.00000000	      0.00000000	     43.52664935	    -15.92848070	     43.52664935	     75.42606312	     44.76234769	      0.00000000	      0.00000000
      3.28000000	    -34.45344367	     11.60659501	      5.59143165	      0.16799826	      0.82708984	     -1.17596413	     61.38040650	    -40.00601413	    -14.54700319	     33.49126116	      0.58453278	      0.63851439	     -6.01856945	      0.00000000	     51.39788375	    -11.33485308	    -26.28859598	     23.10685807	      0.40329075	     -3.81258429	      2.94696742	      0.00000000	      0.00000000	      0.00000000	      0.00000000	     43.53678902	    -15.91822454	     43.53678902	     75.41745075	     44.77310166	      0.00000000	      0.00000000	     43.53678902	    -15.91822454	     43.53678902	     75.41745075	     44.77310166	      0.00000000	      0.00000000
      3.28500000	    -34.40271996	     11.32461122	      5.40944484	      0.16720308	      0.82650918	     -1.17546788	     61.38526505	    -39.64518018	    -14.56515243	     33.66217099	      0.58751572	      0.81114909	     -6.15084398	      0.00000000	     51.68097717	    -11.83519001	    -26.23867250	     23.59097178	      0.41174013	     -3.56137899	      2.67015854	      0.00000000	      0.00000000	      0.00000000	      0.00000000	     43.54658777	    -15.90836981	     43.54658777	     75.40928098	     44.78293103	      0.00000000	      0.00000000	     43.54658777	    -15.90836981	     43.54658777	     75.40928098	     44.78293103	      0.00000000	      0.00000000
      3.29000000	    -35.48921797	     10.81326703	      6.16015244	      0.16521509	      0.82360250	     -1.17706317	     62.54397126	    -40.04412575	    -15.00359135	     34.23169711	      0.59745582	      0.76100742	     -6.25258823	      0.00000000	     53.55503700	    -11.74868733	    -25.14756920	     24.26430231	      0.42349197	     -3.59042895	      2.35189612	      0.00000000	      0.00000000	      0.00000000	      0.00000000	     43.56109239	    -15.89372026	     43.56109239	     75.39700102	     44.79840940	      0.00000000	      0.00000000	     43.56109239	    -15.89372026	     43.56109239	     75.39700102	     44.79840940	      0.00000000	      0.00000000
      3.29500000	    -35.46600179	     10.55442622	      6.10752314	      0.16439398	      0.82293529	     -1.17685451	     62.55829283	    -39.84271628	    -15.07077025	     34.40986261	      0.60056540	      0.76458119	     -6.42521673	      0.00000000	     53.89698722	    -12.13287851	    -25.06185473	     24.73985284	      0.43179189	     -3.54267926	      2.37471782	      0.00000000	      0.00000000	      0.00000000	      0.00000000	     43.56995226	    -15.88487571	     43.56995226	     75.38978836	     44.80670179	      0.00000000	      0.00000000	     43.56995226	    -15.88487571	     43.56995226	     75.38978836	     44.80670179	      0.00000000	      0.00000000
      3.30000000	    -35.39635011	     10.24943193	      5.91113750	      0.16364101	      0.82239895	     -1.17637085	     62.51057967	    -39.44240741	    -15.03336742	     34.55822468	      0.60315480	      0.93959923	     -6.52544359	      0.00000000	     54.14159700	    -12.63029640	    -24.97371008	     25.14094827	      0.43879232	     -3.26434334	      2.09658449	      0.00000000	      0.00000000	      0.00000000	      0.00000000	     43.57869736	    -15.87619016	     43.57869736	     75.38278598	     44.81448858	      0.00000000	      0.00000000	     43.57869736	    -15.87619016	     43.57869736	     75.38278598	     44.81448858	      0.00000000	      0.00000000
      3.30500000	    -36.58285623	      9.67780978	      6.69212353	      0.16147343	      0.81903219	     -1.17816090	     63.81687245	    -39.92420430	    -15.61864479	     35.21766689	      0.61466424	      0.93254526	     -6.61396163	      0.00000000	     56.23837674	    -12.52292495	    -23.80405052	     25.96651629	      0.45320120	     -3.25446468	      1.77043565	      0.00000000	      0.00000000	      0.00000000	      0.00000000	     43.58904847	    -15.86582998	     43.58904847	     75.37427027	     44.82469126	      0.00000000	      0.00000000	     43.58904847	    -15.86582998	     43.58904847	     75.37427027	     44.82469126	      0.00000000	      0.00000000
      3.31000000	    -36.44471070	      9.57492759	      6.62859362	      0.16083971	      0.81867917	     -1.17799848	     63.77117363	    -39.82294134	    -15.53826891	     35.35306725	      0.61702742	      0.97265581	     -6.61927592	      0.00000000	     56.29872557	    -12.71092137	    -23.73917777	     26.19512564	      0.45719119	     -3.18039831	      1.69010448	      0.00000000	      0.00000000	      0.00000000	      0.00000000	     43.59295606	    -15.86200476	     43.59295606	     75.37128857	     44.82766280	      0.00000000	      0.00000000	     43.59295606	    -15.86200476	     43.59295606	     75.37128857	     44.82766280	      0.00000000	      0.00000000
      3.31500000	    -37.13817790	      8.96366129	      6.92665395	      0.15912514	      0.81626286	     -1.17875653	     64.48094334	    -39.78034771	    -15.95175165	     35.78344904	      0.62453900	      1.02634313	     -6.86296795	      0.00000000	     57.81261383	    -13.06220927	    -23.01355745	     27.06783182	      0.47242279	     -3.03983188	      1.51796104	      0.00000000	      0.00000000	      0.00000000	      0.00000000	     43.60290522	    -15.85210384	     43.60290522	     75.36325524	     44.83691805	      0.00000000	      0.00000000	     43.60290522	    -15.85210384	     43.60290522	     75.36325524	     44.83691805	      0.00000000	      0.00000000
      3.32000000	    -37.00674241	      8.86060170	      6.87370726	      0.15857693	      0.81588427	     -1.17867229	     64.43963938	    -39.70190099	    -15.89806366	     35.93358043	      0.62715929	      1.04259672	     -6.87512013	      0.00000000	     57.86367256	    -13.23822668	    -22.96084124	     27.26508515	      0.47586551	     -2.97536855	      1.46869870	      0.00000000	      0.00000000	      0.00000000	      0.00000000	     43.60635088	    -15.84876578	     43.60635088	     75.36071324	     44.83928670	      0.00000000	      0.00000000	     43.60635088	    -15.84876578	     43.60635088	     75.36071324	     44.83928670	      0.00000000	      0.00000000
